Private Tropical # 6 - Tequila Bum Bum DVD

Private

Category Feature, Straight, Foreign, Beach/Wet, Private's Private Tropical Series 

Director Alessandro del Mar, Alexa Weix 

Starring Greg Centauro, Maria, Martina, George, Sebastian Barrio, Sandra Russo, Francesco Malcom, Frederica, Maya Gold

How would you react if your partner was to go on a trip without you? Do you think he would be faithful to you? Dive into this story that's full of shady affairs, swindlers and above all, lots of sex, shot in the heavenly beaches of the Reunion Islands, in French Polynesia.

Studio Private 

Discs 1 

Release Date Aug 01, 2003
 
http://bayimg.com/FanDPAaDM
 
http://bayimg.com/gandaAAdM
 
http://bayimg.com/GandCaadm

                                info

General
Complete name                    : C:DownloadsPrivate Tropical # 6 - Tequila Bum Bum DVDdvdTequila Bum Bum.avi
Format                           : AVI
Format/Info                      : Audio Video Interleave
Format profile                   : OpenDML
File size                        : 1.91 GiB
Duration                         : 1h 44mn
Overall bit rate                 : 2 604 Kbps
Writing application              : MEncoder SVN-r30881(20100311-gcc4.3.3)
Writing library                  : MPlayer

Video
ID                               : 0
Format                           : MPEG-4 Visual
Format profile                   : Advanced Simple@L5
Format settings, BVOP            : 2
Format settings, QPel            : No
Format settings, GMC             : No warppoints
Format settings, Matrix          : Default (H.263)
Codec ID                         : XVID
Codec ID/Hint                    : XviD
Duration                         : 1h 44mn
Bit rate                         : 2 399 Kbps
Width                            : 1 280 pixels
Height                           : 720 pixels
Display aspect ratio             : 16:9
Frame rate                       : 25.000 fps
Color space                      : YUV
Chroma subsampling               : 4:2:0
Bit depth                        : 8 bits
Scan type                        : Progressive
Compression mode                 : Lossy
Bits/(Pixel*Frame)               : 0.104
Stream size                      : 1.76 GiB (92%)
Writing library                  : XviD 1.2.1 (UTC 2008-12-04)

Audio
ID                               : 1
Format                           : MPEG Audio
Format version                   : Version 1
Format profile                   : Layer 3
Mode                             : Joint stereo
Codec ID                         : 55
Codec ID/Hint                    : MP3
Duration                         : 1h 44mn
Bit rate mode                    : Constant
Bit rate                         : 192 Kbps
Channel(s)                       : 2 channels
Sampling rate                    : 48.0 KHz
Compression mode                 : Lossy
Delay relative to video          : 40ms
Stream size                      : 3.63 MiB (0%)
Alignment                        : Aligned on interleaves
Interleave, duration             : 953 ms (23.81 video frames)
Interleave, preload duration     : 504 ms

